M48
INCH
T1C0.0157
T2C0.0300
T3C0.0394
%
G90
G05
T1
X4.1822Y-4.8363
X4.2767Y-5.1393
X4.4283Y-4.9812
X4.4309Y-4.428
X4.4569Y-4.9526
X4.4608Y-3.2974
X4.5484Y-3.5599
X4.5909Y-4.0467
X4.608Y-4.838
X4.6918Y-4.9626
X4.8039Y-4.5025
X4.8532Y-4.8249
X4.8851Y-4.9533
X4.9218Y-5.0227
X4.9276Y-4.8581
X4.9345Y-4.4761
X4.9949Y-4.9431
X5.0029Y-3.6821
X5.0499Y-3.7062
X5.0889Y-4.871
X5.219Y-2.9083
X5.2516Y-3.0101
X5.3771Y-4.4491
X5.3946Y-4.6023
X5.3946Y-4.8192
X5.4553Y-5.0294
X5.5005Y-2.6217
X5.513Y-4.4847
X5.5989Y-3.4437
X5.6037Y-3.139
X5.663Y-2.9564
X5.6772Y-4.8429
X5.7213Y-3.3205
X5.7782Y-4.8456
X5.805Y-2.9018
X5.9303Y-4.3289
X5.9365Y-3.0767
X6.1162Y-4.9492
X6.1164Y-2.9615
X6.1463Y-5.2718
X6.1612Y-4.891
X6.1849Y-3.052
X6.3241Y-3.3819
X6.3278Y-3.4214
X6.3529Y-4.4171
X6.4197Y-4.1786
T2
X4.6489Y-3.1711
X4.6489Y-3.2711
X4.6489Y-3.3711
X4.6489Y-3.4711
X4.6489Y-3.5711
X4.6489Y-3.6711
X4.6489Y-3.7711
X4.6489Y-3.8711
X4.6489Y-3.9711
X4.6489Y-4.0711
X4.6489Y-4.1711
X4.6489Y-4.2711
X4.6489Y-4.3711
X4.6489Y-4.4711
X4.6489Y-4.5711
X4.6489Y-4.6711
X4.6489Y-4.7711
X4.7489Y-3.1711
X4.7489Y-3.2711
X4.7489Y-3.3711
X4.7489Y-3.4711
X4.7489Y-3.5711
X4.7489Y-3.6711
X4.7489Y-3.7711
X4.7489Y-3.8711
X4.7489Y-3.9711
X4.7489Y-4.0711
X4.7489Y-4.1711
X4.7489Y-4.2711
X4.7489Y-4.3711
X4.7489Y-4.4711
X4.7489Y-4.5711
X4.7489Y-4.6711
X4.7489Y-4.7711
X4.8489Y-3.1711
X4.8489Y-3.2711
X4.8489Y-3.3711
X4.8489Y-3.4711
X4.8489Y-3.5711
X4.8489Y-3.6711
X4.8489Y-3.7711
X4.8489Y-3.8711
X4.8489Y-3.9711
X4.8489Y-4.0711
X4.8489Y-4.1711
X4.8489Y-4.2711
X4.8489Y-4.3711
X4.8489Y-4.4711
X4.8489Y-4.5711
X4.8489Y-4.6711
X4.8489Y-4.7711
X4.9489Y-3.1711
X4.9489Y-3.2711
X4.9489Y-3.3711
X4.9489Y-4.5711
X4.9489Y-4.6711
X4.9489Y-4.7711
X5.0489Y-3.1711
X5.0489Y-3.2711
X5.0489Y-3.3711
X5.0489Y-4.5711
X5.0489Y-4.6711
X5.0489Y-4.7711
X5.1489Y-3.1711
X5.1489Y-3.2711
X5.1489Y-3.3711
X5.1489Y-4.5711
X5.1489Y-4.6711
X5.1489Y-4.7711
X5.2489Y-3.1711
X5.2489Y-3.2711
X5.2489Y-3.3711
X5.2489Y-4.5711
X5.2489Y-4.6711
X5.2489Y-4.7711
X5.3489Y-3.1711
X5.3489Y-3.2711
X5.3489Y-3.3711
X5.3489Y-4.5711
X5.3489Y-4.6711
X5.3489Y-4.7711
X5.4489Y-3.1711
X5.4489Y-3.2711
X5.4489Y-3.3711
X5.4489Y-4.5711
X5.4489Y-4.6711
X5.4489Y-4.7711
X5.5489Y-3.1711
X5.5489Y-3.2711
X5.5489Y-3.3711
X5.5489Y-4.5711
X5.5489Y-4.6711
X5.5489Y-4.7711
X5.6489Y-3.1711
X5.6489Y-3.2711
X5.6489Y-3.3711
X5.6489Y-4.5711
X5.6489Y-4.6711
X5.6489Y-4.7711
X5.7489Y-3.1711
X5.7489Y-3.2711
X5.7489Y-3.3711
X5.7489Y-4.5711
X5.7489Y-4.6711
X5.7489Y-4.7711
X5.8489Y-3.1711
X5.8489Y-3.2711
X5.8489Y-3.3711
X5.8489Y-4.5711
X5.8489Y-4.6711
X5.8489Y-4.7711
X5.9489Y-3.1711
X5.9489Y-3.2711
X5.9489Y-3.3711
X5.9489Y-4.5711
X5.9489Y-4.6711
X5.9489Y-4.7711
X6.0489Y-3.1711
X6.0489Y-3.2711
X6.0489Y-3.3711
X6.0489Y-3.4711
X6.0489Y-3.5711
X6.0489Y-3.6711
X6.0489Y-3.7711
X6.0489Y-3.8711
X6.0489Y-3.9711
X6.0489Y-4.0711
X6.0489Y-4.1711
X6.0489Y-4.2711
X6.0489Y-4.3711
X6.0489Y-4.4711
X6.0489Y-4.5711
X6.0489Y-4.6711
X6.0489Y-4.7711
X6.1489Y-3.1711
X6.1489Y-3.2711
X6.1489Y-3.3711
X6.1489Y-3.4711
X6.1489Y-3.5711
X6.1489Y-3.6711
X6.1489Y-3.7711
X6.1489Y-3.8711
X6.1489Y-3.9711
X6.1489Y-4.0711
X6.1489Y-4.1711
X6.1489Y-4.2711
X6.1489Y-4.3711
X6.1489Y-4.4711
X6.1489Y-4.5711
X6.1489Y-4.6711
X6.1489Y-4.7711
X6.2489Y-3.1711
X6.2489Y-3.2711
X6.2489Y-3.3711
X6.2489Y-3.4711
X6.2489Y-3.5711
X6.2489Y-3.6711
X6.2489Y-3.7711
X6.2489Y-3.8711
X6.2489Y-3.9711
X6.2489Y-4.0711
X6.2489Y-4.1711
X6.2489Y-4.2711
X6.2489Y-4.3711
X6.2489Y-4.4711
X6.2489Y-4.5711
X6.2489Y-4.6711
X6.2489Y-4.7711
T3
X4.2589Y-3.0111
X4.2589Y-3.1111
X4.2589Y-3.2111
X4.2589Y-3.3111
X4.2589Y-3.4111
X4.2589Y-3.5111
X4.2589Y-3.6111
X4.2589Y-3.7111
X4.2589Y-3.8111
X4.2589Y-3.9111
X4.2589Y-4.0111
X4.2589Y-4.1111
X4.2589Y-4.2111
X4.2589Y-4.3111
X4.2589Y-4.4111
X4.2589Y-4.5111
X4.2589Y-4.6111
X4.2589Y-4.7111
X4.2589Y-4.8111
X4.2589Y-4.9111
X4.3589Y-3.0111
X4.3589Y-3.1111
X4.3589Y-3.2111
X4.3589Y-3.3111
X4.3589Y-3.4111
X4.3589Y-3.5111
X4.3589Y-3.6111
X4.3589Y-3.7111
X4.3589Y-3.8111
X4.3589Y-3.9111
X4.3589Y-4.0111
X4.3589Y-4.1111
X4.3589Y-4.2111
X4.3589Y-4.3111
X4.3589Y-4.4111
X4.3589Y-4.5111
X4.3589Y-4.6111
X4.3589Y-4.7111
X4.3589Y-4.8111
X4.3589Y-4.9111
X4.369Y-2.7513
X4.369Y-2.8513
X4.3889Y-5.0811
X4.3889Y-5.1811
X4.469Y-2.7513
X4.469Y-2.8513
X4.4889Y-5.0811
X4.4889Y-5.1811
X4.569Y-2.7513
X4.569Y-2.8513
X4.5889Y-5.0811
X4.5889Y-5.1811
X4.669Y-2.7513
X4.669Y-2.8513
X4.6889Y-5.0811
X4.6889Y-5.1811
X4.769Y-2.7513
X4.769Y-2.8513
X4.7889Y-5.0811
X4.7889Y-5.1811
X4.869Y-2.7513
X4.869Y-2.8513
X4.8889Y-5.0811
X4.8889Y-5.1811
X4.969Y-2.7513
X4.969Y-2.8513
X4.9889Y-5.0811
X4.9889Y-5.1811
X5.069Y-2.7513
X5.069Y-2.8513
X5.0889Y-5.0811
X5.0889Y-5.1811
X5.169Y-2.7513
X5.169Y-2.8513
X5.1889Y-5.0811
X5.1889Y-5.1811
X5.269Y-2.7513
X5.269Y-2.8513
X5.2889Y-5.0811
X5.2889Y-5.1811
X5.369Y-2.7513
X5.369Y-2.8513
X5.3889Y-5.0811
X5.3889Y-5.1811
X5.469Y-2.7513
X5.469Y-2.8513
X5.479Y-3.5589
X5.4889Y-5.0811
X5.4889Y-5.1811
X5.569Y-2.7513
X5.569Y-2.8513
X5.579Y-3.5589
X5.5889Y-5.0811
X5.5889Y-5.1811
X5.669Y-2.7513
X5.669Y-2.8513
X5.6889Y-5.0811
X5.6889Y-5.1811
X5.769Y-2.7513
X5.769Y-2.8513
X5.7889Y-5.0811
X5.7889Y-5.1811
X5.869Y-2.7513
X5.869Y-2.8513
X5.8889Y-5.0811
X5.8889Y-5.1811
X5.969Y-2.7513
X5.969Y-2.8513
X5.9889Y-5.0811
X5.9889Y-5.1811
X6.069Y-2.7513
X6.069Y-2.8513
X6.0889Y-5.0811
X6.0889Y-5.1811
X6.169Y-2.7513
X6.169Y-2.8513
X6.1889Y-5.0811
X6.1889Y-5.1811
X6.269Y-2.7513
X6.269Y-2.8513
X6.2889Y-5.0811
X6.2889Y-5.1811
M30
